<svg xmlns="http://www.w3.org/2000/svg" viewBox="0 0 300 300">
  <style>
    path {
      fill: #000000; <!-- ライトモード時のカラー -->
    }
 
    @media (prefers-color-scheme: dark) {
      path {
        fill: white; <!-- ダークモード時のカラー -->
        opacity: 0;
      }
    }
  </style>
	<path d="M99.88,99.85,100,0H200l.12,99.85-.72.75c-2.31-.23-4.62-.64-6.93-.64q-42.46-.06-84.94,0c-2.31,0-4.62.42-6.93.64Z"/><path d="M0,100l99.88-.15.72.75c-.23,2.31-.64,4.62-.64,6.93q-.06,42.47,0,84.94c0,2.31.42,4.62.64,6.93l-.75.72L0,200Z"/><path d="M200.12,99.85,300,100V200q-46.74,0-93.47,0a54.49,54.49,0,0,0-5.93.63l-1.2-1.2c.23-2.31.64-4.62.64-6.93q.06-42.46,0-84.94c0-2.31-.42-4.62-.64-6.93Z"/><path d="M100,300l-.15-99.88.75-.72c2.31.23,4.62.64,6.93.64q42.47.06,84.94,0c2.31,0,4.62-.41,6.93-.64l1.2,1.2a54,54,0,0,0-.63,5.93q0,46.74,0,93.47Z"/>
</svg>